<?xml version="1.0" encoding="UTF-8" standalone="no"?>
<!DOCTYPE svg PUBLIC "-//W3C//DTD SVG 1.1//EN" "http://www.w3.org/Graphics/SVG/1.1/DTD/svg11.dtd">
<svg version="1.1" xmlns="http://www.w3.org/2000/svg" xmlns:xlink="http://www.w3.org/1999/xlink" preserveAspectRatio="xMidYMid meet" viewBox="0 0 640 640" width="640" height="640"><defs><path d="M610.62 0.11L611.91 0.24L613.18 0.42L614.44 0.65L615.68 0.93L616.9 1.26L618.1 1.63L619.28 2.05L620.44 2.52L621.58 3.03L622.69 3.58L623.78 4.17L624.84 4.8L625.88 5.47L626.89 6.18L627.86 6.93L628.81 7.71L629.73 8.53L630.62 9.38L631.47 10.27L632.29 11.19L633.07 12.14L633.82 13.11L634.53 14.12L635.2 15.16L635.83 16.22L636.42 17.31L636.97 18.42L637.48 19.56L637.95 20.72L638.37 21.9L638.74 23.1L639.07 24.32L639.35 25.56L639.58 26.82L639.76 28.09L639.89 29.38L639.97 30.68L640 32L640 629.33L639.99 629.77L639.96 630.21L639.92 630.64L639.86 631.06L639.78 631.48L639.69 631.9L639.58 632.3L639.46 632.7L639.32 633.1L639.16 633.48L638.99 633.86L638.81 634.23L638.61 634.6L638.4 634.95L638.18 635.3L637.94 635.63L637.69 635.96L637.43 636.27L637.16 636.58L636.87 636.87L636.58 637.16L636.27 637.43L635.96 637.69L635.63 637.94L635.3 638.18L634.95 638.4L634.6 638.61L634.23 638.81L633.86 638.99L633.48 639.16L633.1 639.32L632.7 639.46L632.3 639.58L631.9 639.69L631.48 639.78L631.06 639.86L630.64 639.92L630.21 639.96L629.77 639.99L629.33 640L10.67 640L10.23 639.99L9.79 639.96L9.36 639.92L8.94 639.86L8.52 639.78L8.1 639.69L7.7 639.58L7.3 639.46L6.9 639.32L6.52 639.16L6.14 638.99L5.77 638.81L5.4 638.61L5.05 638.4L4.7 638.18L4.37 637.94L4.04 637.69L3.73 637.43L3.42 637.16L3.13 636.87L2.84 636.58L2.57 636.27L2.31 635.96L2.06 635.63L1.82 635.3L1.6 634.95L1.39 634.6L1.19 634.23L1.01 633.86L0.84 633.48L0.68 633.1L0.54 632.7L0.42 632.3L0.31 631.9L0.22 631.48L0.14 631.06L0.08 630.64L0.04 630.21L0.01 629.77L0 629.33L0 32L0.03 30.68L0.11 29.38L0.24 28.09L0.42 26.82L0.65 25.56L0.93 24.32L1.26 23.1L1.63 21.9L2.05 20.72L2.52 19.56L3.03 18.42L3.58 17.31L4.17 16.22L4.8 15.16L5.47 14.12L6.18 13.11L6.93 12.14L7.71 11.19L8.53 10.27L9.38 9.38L10.27 8.53L11.19 7.71L12.14 6.93L13.11 6.18L14.12 5.47L15.16 4.8L16.22 4.17L17.31 3.58L18.42 3.03L19.56 2.52L20.72 2.05L21.9 1.63L23.1 1.26L24.32 0.93L25.56 0.65L26.82 0.42L28.09 0.24L29.38 0.11L30.68 0.03L32 0L608 0L609.32 0.03L610.62 0.11ZM544 618.67L618.67 618.67L618.67 565.33L544 565.33L544 618.67ZM437.33 618.67L522.67 618.67L522.67 565.33L437.33 565.33L437.33 618.67ZM224 618.67L309.33 618.67L309.33 565.33L224 565.33L224 618.67ZM117.33 618.67L202.67 618.67L202.67 565.33L117.33 565.33L117.33 618.67ZM330.67 618.67L416 618.67L416 565.33L330.67 565.33L330.67 618.67ZM21.33 618.67L96 618.67L96 565.33L21.33 565.33L21.33 618.67ZM21.33 544L618.67 544L618.67 181.33L21.33 181.33L21.33 544ZM21.33 160L618.67 160L618.67 106.67L21.33 106.67L21.33 160ZM31.56 21.34L31.13 21.37L30.7 21.41L30.27 21.47L29.85 21.55L29.44 21.64L29.03 21.75L28.63 21.88L28.24 22.02L27.85 22.17L27.48 22.34L27.1 22.53L26.74 22.72L26.39 22.93L26.04 23.16L25.71 23.4L25.38 23.64L25.06 23.91L24.76 24.18L24.46 24.46L24.18 24.76L23.91 25.06L23.64 25.38L23.4 25.71L23.16 26.04L22.93 26.39L22.72 26.74L22.53 27.1L22.34 27.48L22.17 27.85L22.02 28.24L21.88 28.63L21.75 29.03L21.64 29.44L21.55 29.85L21.47 30.27L21.41 30.7L21.37 31.13L21.34 31.56L21.33 32L21.33 85.33L618.67 85.33L618.67 32L618.66 31.56L618.63 31.13L618.59 30.7L618.53 30.27L618.45 29.85L618.36 29.44L618.25 29.03L618.12 28.63L617.98 28.24L617.83 27.85L617.66 27.48L617.47 27.1L617.28 26.74L617.07 26.39L616.84 26.04L616.6 25.71L616.36 25.38L616.09 25.06L615.82 24.76L615.54 24.46L615.24 24.18L614.94 23.91L614.62 23.64L614.29 23.4L613.96 23.16L613.61 22.93L613.26 22.72L612.9 22.53L612.52 22.34L612.15 22.17L611.76 22.02L611.37 21.88L610.97 21.75L610.56 21.64L610.15 21.55L609.73 21.47L609.3 21.41L608.87 21.37L608.44 21.34L608 21.33L32 21.33L31.56 21.34Z" id="b1ROEcsnZ"></path><path d="M96 42.67C96 42.67 96 42.67 96 42.67C96 55.47 96 62.58 96 64C96 64 96 64 96 64C70.4 64 56.18 64 53.33 64C53.33 64 53.33 64 53.33 64C53.33 51.2 53.33 44.09 53.33 42.67C53.33 42.67 53.33 42.67 53.33 42.67C78.93 42.67 93.16 42.67 96 42.67Z" id="c49bfmCNml"></path><path d="M170.67 42.67C170.67 42.67 170.67 42.67 170.67 42.67C170.67 55.47 170.67 62.58 170.67 64C170.67 64 170.67 64 170.67 64C145.07 64 130.84 64 128 64C128 64 128 64 128 64C128 51.2 128 44.09 128 42.67C128 42.67 128 42.67 128 42.67C153.6 42.67 167.82 42.67 170.67 42.67Z" id="cK5UXTPk1"></path><path d="M149.33 256L149.33 394.67L85.33 394.67L85.33 256L64 256C64 345.6 64 395.38 64 405.33C64 411.22 68.78 416 74.67 416C79.64 416 104.53 416 149.33 416L149.33 480L170.67 480L170.67 416L202.67 416L202.67 394.67L170.67 394.67L170.67 256L149.33 256Z" id="b2Q539OjEx"></path><path d="M544 394.67L544 256L522.67 256L522.67 394.67L458.67 394.67L458.67 256L437.33 256C437.33 345.6 437.33 395.38 437.33 405.33C437.33 411.22 442.11 416 448 416C452.98 416 477.87 416 522.67 416L522.67 480L544 480L544 416L576 416L576 394.67L544 394.67Z" id="bj1qgwlHo"></path><path d="M326.12 256.25L329.12 256.55L332.1 256.98L335.03 257.52L337.92 258.17L340.77 258.94L343.58 259.81L346.33 260.79L349.04 261.88L351.69 263.06L354.29 264.35L356.82 265.73L359.3 267.2L361.72 268.77L364.07 270.42L366.35 272.17L368.57 273.99L370.71 275.9L372.77 277.89L374.76 279.96L376.67 282.1L378.5 284.31L380.24 286.6L381.9 288.95L383.46 291.36L384.94 293.84L386.32 296.38L387.6 298.98L388.79 301.63L389.87 304.34L390.85 307.09L391.73 309.89L392.49 312.74L393.15 315.64L393.69 318.57L394.11 321.54L394.42 324.55L394.6 327.59L394.67 330.67L394.67 405.33L394.6 408.41L394.42 411.45L394.11 414.46L393.69 417.43L393.15 420.36L392.49 423.26L391.73 426.11L390.85 428.91L389.87 431.66L388.79 434.37L387.6 437.02L386.32 439.62L384.94 442.16L383.46 444.64L381.9 447.05L380.24 449.4L378.5 451.69L376.67 453.9L374.76 456.04L372.77 458.11L370.71 460.1L368.57 462.01L366.35 463.83L364.07 465.58L361.72 467.23L359.3 468.8L356.82 470.27L354.29 471.65L351.69 472.94L349.04 474.12L346.33 475.21L343.58 476.19L340.77 477.06L337.92 477.83L335.03 478.48L332.1 479.02L329.12 479.45L326.12 479.75L323.07 479.94L320 480L316.93 479.94L313.88 479.75L310.88 479.45L307.9 479.02L304.97 478.48L302.08 477.83L299.23 477.06L296.42 476.19L293.67 475.21L290.96 474.12L288.31 472.94L285.71 471.65L283.18 470.27L280.7 468.8L278.28 467.23L275.93 465.58L273.65 463.83L271.43 462.01L269.29 460.1L267.23 458.11L265.24 456.04L263.33 453.9L261.5 451.69L259.76 449.4L258.1 447.05L256.54 444.64L255.06 442.16L253.68 439.62L252.4 437.02L251.21 434.37L250.13 431.66L249.15 428.91L248.27 426.11L247.51 423.26L246.85 420.36L246.31 417.43L245.89 414.46L245.58 411.45L245.4 408.41L245.33 405.33L245.33 330.67L245.4 327.59L245.58 324.55L245.89 321.54L246.31 318.57L246.85 315.64L247.51 312.74L248.27 309.89L249.15 307.09L250.13 304.34L251.21 301.63L252.4 298.98L253.68 296.38L255.06 293.84L256.54 291.36L258.1 288.95L259.76 286.6L261.5 284.31L263.33 282.1L265.24 279.96L267.23 277.89L269.29 275.9L271.43 273.99L273.65 272.17L275.93 270.42L278.28 268.77L280.7 267.2L283.18 265.73L285.71 264.35L288.31 263.06L290.96 261.88L293.67 260.79L296.42 259.81L299.23 258.94L302.08 258.17L304.97 257.52L307.9 256.98L310.88 256.55L313.88 256.25L316.93 256.06L320 256L323.07 256.06L326.12 256.25ZM315.63 277.51L313.48 277.73L311.36 278.03L309.27 278.42L307.2 278.89L305.16 279.43L303.16 280.06L301.19 280.76L299.26 281.53L297.37 282.38L295.51 283.3L293.7 284.28L291.93 285.34L290.2 286.45L288.52 287.64L286.89 288.88L285.31 290.19L283.78 291.55L282.31 292.97L280.88 294.45L279.52 295.98L278.22 297.56L276.97 299.19L275.79 300.87L274.67 302.59L273.61 304.36L272.63 306.18L271.71 308.03L270.86 309.93L270.09 311.86L269.39 313.83L268.77 315.83L268.22 317.87L267.75 319.93L267.37 322.03L267.06 324.15L266.84 326.3L266.71 328.47L266.67 330.67L266.67 405.33L266.71 407.53L266.84 409.7L267.06 411.85L267.37 413.97L267.75 416.07L268.22 418.13L268.77 420.17L269.39 422.17L270.09 424.14L270.86 426.07L271.71 427.97L272.63 429.82L273.61 431.64L274.67 433.41L275.79 435.13L276.97 436.81L278.22 438.44L279.52 440.02L280.88 441.55L282.31 443.03L283.78 444.45L285.31 445.81L286.89 447.12L288.52 448.36L290.2 449.55L291.93 450.66L293.7 451.72L295.51 452.7L297.37 453.62L299.26 454.47L301.19 455.24L303.16 455.94L305.16 456.57L307.2 457.11L309.27 457.58L311.36 457.97L313.48 458.27L315.63 458.49L317.8 458.62L320 458.67L321.47 458.63L322.93 458.53L324.38 458.37L325.83 458.13L327.27 457.83L328.7 457.47L330.12 457.03L331.54 456.53L332.96 455.97L334.36 455.33L335.76 454.63L337.15 453.87L338.54 453.03L339.91 452.13L341.29 451.17L342.65 450.13L344.01 449.03L345.36 447.87L346.7 446.63L348.04 445.33L349.37 443.97L350.69 442.53L352.01 441.03L353.32 439.47L354.62 437.83L355.91 436.13L357.2 434.37L358.48 432.53L359.76 430.63L361.03 428.67L362.29 426.63L363.54 424.53L364.79 422.37L366.03 420.13L367.27 417.83L368.49 415.47L369.71 413.03L370.93 410.53L372.13 407.97L373.33 405.33L373.33 330.67L373.29 328.47L373.16 326.3L372.94 324.15L372.63 322.03L372.25 319.93L371.78 317.87L371.23 315.83L370.61 313.83L369.91 311.86L369.14 309.93L368.29 308.03L367.37 306.18L366.39 304.36L365.33 302.59L364.21 300.87L363.03 299.19L361.78 297.56L360.48 295.98L359.12 294.45L357.69 292.97L356.22 291.55L354.69 290.19L353.11 288.88L351.48 287.64L349.8 286.45L348.07 285.34L346.3 284.28L344.49 283.3L342.63 282.38L340.74 281.53L338.81 280.76L336.84 280.06L334.84 279.43L332.8 278.89L330.73 278.42L328.64 278.03L326.52 277.73L324.37 277.51L322.2 277.38L320 277.33L317.8 277.38L315.63 277.51Z" id="a2ATf2q6qj"></path></defs><g><g><g><use xlink:href="#b1ROEcsnZ" opacity="1" fill="#0070ba" fill-opacity="1"></use><g><use xlink:href="#b1ROEcsnZ" opacity="1" fill-opacity="0" stroke="#000000" stroke-width="1" stroke-opacity="0"></use></g></g><g><use xlink:href="#c49bfmCNml" opacity="1" fill="#0070ba" fill-opacity="1"></use><g><use xlink:href="#c49bfmCNml" opacity="1" fill-opacity="0" stroke="#000000" stroke-width="1" stroke-opacity="0"></use></g></g><g><use xlink:href="#cK5UXTPk1" opacity="1" fill="#0070ba" fill-opacity="1"></use><g><use xlink:href="#cK5UXTPk1" opacity="1" fill-opacity="0" stroke="#000000" stroke-width="1" stroke-opacity="0"></use></g></g><g><use xlink:href="#b2Q539OjEx" opacity="1" fill="#0070ba" fill-opacity="1"></use><g><use xlink:href="#b2Q539OjEx" opacity="1" fill-opacity="0" stroke="#000000" stroke-width="1" stroke-opacity="0"></use></g></g><g><use xlink:href="#bj1qgwlHo" opacity="1" fill="#0070ba" fill-opacity="1"></use><g><use xlink:href="#bj1qgwlHo" opacity="1" fill-opacity="0" stroke="#000000" stroke-width="1" stroke-opacity="0"></use></g></g><g><use xlink:href="#a2ATf2q6qj" opacity="1" fill="#0070ba" fill-opacity="1"></use><g><use xlink:href="#a2ATf2q6qj" opacity="1" fill-opacity="0" stroke="#000000" stroke-width="1" stroke-opacity="0"></use></g></g></g></g></svg>