<?xml version="1.0" encoding="UTF-8" standalone="no"?>
<!DOCTYPE svg PUBLIC "-//W3C//DTD SVG 1.1//EN" "http://www.w3.org/Graphics/SVG/1.1/DTD/svg11.dtd">
<svg version="1.1" xmlns="http://www.w3.org/2000/svg" xmlns:xlink="http://www.w3.org/1999/xlink" preserveAspectRatio="xMidYMid meet" viewBox="0 0 640 640" width="640" height="640"><defs><path d="M429.24 132.69L430.04 132.75L430.84 132.85L431.63 132.97L432.4 133.12L433.17 133.29L433.92 133.49L434.65 133.71L435.38 133.96L436.09 134.22L436.78 134.51L437.46 134.83L438.13 135.16L438.77 135.51L439.4 135.89L440.01 136.28L440.61 136.69L441.18 137.13L441.73 137.58L442.26 138.04L442.78 138.53L443.26 139.03L443.73 139.54L444.17 140.07L444.59 140.62L444.99 141.18L445.36 141.76L445.7 142.34L446.02 142.94L446.31 143.55L446.57 144.18L446.8 144.81L447.01 145.46L447.18 146.11L447.33 146.78L447.44 147.45L447.52 148.13L447.57 148.82L447.59 149.52L447.59 166.4L507.56 166.4L508.79 166.42L510.01 166.49L511.22 166.59L512.42 166.73L513.6 166.92L514.76 167.14L515.91 167.4L517.03 167.69L518.14 168.02L519.23 168.39L520.29 168.79L521.33 169.23L522.35 169.7L523.35 170.2L524.32 170.73L525.26 171.29L526.18 171.88L527.07 172.5L527.93 173.15L528.76 173.82L529.56 174.52L530.32 175.25L531.05 176L531.75 176.77L532.42 177.57L533.05 178.39L533.64 179.23L534.19 180.09L534.71 180.97L535.18 181.87L535.62 182.79L536.01 183.72L536.36 184.68L536.67 185.64L536.93 186.63L537.15 187.62L537.32 188.63L537.44 189.65L537.51 190.69L537.54 191.73L537.54 461.91L537.51 462.95L537.44 463.98L537.32 465.01L537.15 466.02L536.93 467.01L536.67 467.99L536.36 468.96L536.01 469.91L535.62 470.85L535.18 471.77L534.71 472.67L534.19 473.55L533.64 474.41L533.05 475.25L532.42 476.07L531.75 476.87L531.05 477.64L530.32 478.39L529.56 479.12L528.76 479.82L527.93 480.49L527.07 481.14L526.18 481.76L525.26 482.35L524.32 482.91L523.35 483.44L522.35 483.94L521.33 484.41L520.29 484.84L519.23 485.25L518.14 485.61L517.03 485.94L515.91 486.24L514.76 486.5L513.6 486.72L512.42 486.9L511.22 487.05L510.01 487.15L508.79 487.21L507.56 487.24L147.75 487.24L146.51 487.21L145.29 487.15L144.08 487.05L142.88 486.9L141.71 486.72L140.54 486.5L139.4 486.24L138.27 485.94L137.16 485.61L136.08 485.25L135.01 484.84L133.97 484.41L132.95 483.94L131.95 483.44L130.98 482.91L130.04 482.35L129.12 481.76L128.23 481.14L127.38 480.49L126.55 479.82L125.75 479.12L124.98 478.39L124.25 477.64L123.55 476.87L122.88 476.07L122.26 475.25L121.66 474.41L121.11 473.55L120.6 472.67L120.12 471.77L119.69 470.85L119.29 469.91L118.94 468.96L118.64 467.99L118.37 467.01L118.16 466.02L117.99 465.01L117.86 463.98L117.79 462.95L117.76 461.91L117.76 191.73L117.79 190.69L117.86 189.65L117.99 188.63L118.16 187.62L118.37 186.63L118.64 185.64L118.94 184.68L119.29 183.72L119.69 182.79L120.12 181.87L120.6 180.97L121.11 180.09L121.66 179.23L122.26 178.39L122.88 177.57L123.55 176.77L124.25 176L124.98 175.25L125.75 174.52L126.55 173.82L127.38 173.15L128.23 172.5L129.12 171.88L130.04 171.29L130.98 170.73L131.95 170.2L132.95 169.7L133.97 169.23L135.01 168.79L136.08 168.39L137.16 168.02L138.27 167.69L139.4 167.4L140.54 167.14L141.71 166.92L142.88 166.73L144.08 166.59L145.29 166.49L146.51 166.42L147.75 166.4L207.72 166.4L207.72 149.52L207.73 148.82L207.78 148.13L207.86 147.45L207.98 146.78L208.12 146.11L208.3 145.46L208.5 144.81L208.73 144.18L209 143.55L209.29 142.94L209.6 142.34L209.95 141.76L210.32 141.18L210.71 140.62L211.13 140.07L211.57 139.54L212.04 139.03L212.53 138.53L213.04 138.04L213.57 137.58L214.12 137.13L214.7 136.69L215.29 136.28L215.9 135.89L216.53 135.51L217.18 135.16L217.84 134.83L218.52 134.51L219.21 134.22L219.92 133.96L220.65 133.71L221.39 133.49L222.14 133.29L222.9 133.12L223.68 132.97L224.46 132.85L225.26 132.75L226.07 132.69L226.88 132.64L227.71 132.63L228.53 132.64L229.34 132.69L230.15 132.75L230.95 132.85L231.73 132.97L232.51 133.12L233.27 133.29L234.02 133.49L234.76 133.71L235.49 133.96L236.2 134.22L236.89 134.51L237.57 134.83L238.23 135.16L238.88 135.51L239.51 135.89L240.12 136.28L240.71 136.69L241.29 137.13L241.84 137.58L242.37 138.04L242.88 138.53L243.37 139.03L243.84 139.54L244.28 140.07L244.7 140.62L245.09 141.18L245.46 141.76L245.81 142.34L246.12 142.94L246.41 143.55L246.68 144.18L246.91 144.81L247.11 145.46L247.29 146.11L247.43 146.78L247.55 147.45L247.63 148.13L247.68 148.82L247.69 149.52L247.69 166.4L407.61 166.4L407.61 149.52L407.63 148.82L407.68 148.13L407.76 147.45L407.87 146.78L408.01 146.11L408.19 145.46L408.39 144.81L408.63 144.18L408.89 143.55L409.18 142.94L409.5 142.34L409.84 141.76L410.21 141.18L410.6 140.62L411.02 140.07L411.47 139.54L411.93 139.03L412.42 138.53L412.93 138.04L413.46 137.58L414.02 137.13L414.59 136.69L415.18 136.28L415.79 135.89L416.42 135.51L417.07 135.16L417.73 134.83L418.41 134.51L419.11 134.22L419.82 133.96L420.54 133.71L421.28 133.49L422.03 133.29L422.79 133.12L423.57 132.97L424.36 132.85L425.15 132.75L425.96 132.69L426.77 132.64L427.6 132.63L428.42 132.64L429.24 132.69ZM157.74 453.46L497.56 453.46L497.56 284.6L157.74 284.6L157.74 453.46ZM157.74 250.83L497.56 250.83L497.56 200.17L447.59 200.17L447.59 217.06L447.57 217.76L447.52 218.44L447.44 219.13L447.33 219.8L447.18 220.46L447.01 221.12L446.8 221.76L446.57 222.4L446.31 223.02L446.02 223.63L445.7 224.23L445.36 224.82L444.99 225.39L444.59 225.95L444.17 226.5L443.73 227.03L443.26 227.55L442.78 228.05L442.26 228.53L441.73 229L441.18 229.45L440.61 229.88L440.01 230.29L439.4 230.69L438.77 231.06L438.13 231.42L437.46 231.75L436.78 232.06L436.09 232.35L435.38 232.62L434.65 232.86L433.92 233.08L433.17 233.28L432.4 233.45L431.63 233.6L430.84 233.72L430.04 233.82L429.24 233.89L428.42 233.93L427.6 233.95L426.77 233.93L425.96 233.89L425.15 233.82L424.36 233.72L423.57 233.6L422.79 233.45L422.03 233.28L421.28 233.08L420.54 232.86L419.82 232.62L419.11 232.35L418.41 232.06L417.73 231.75L417.07 231.42L416.42 231.06L415.79 230.69L415.18 230.29L414.59 229.88L414.02 229.45L413.46 229L412.93 228.53L412.42 228.05L411.93 227.55L411.47 227.03L411.02 226.5L410.6 225.95L410.21 225.39L409.84 224.82L409.5 224.23L409.18 223.63L408.89 223.02L408.63 222.4L408.39 221.76L408.19 221.12L408.01 220.46L407.87 219.8L407.76 219.13L407.68 218.44L407.63 217.76L407.61 217.06L407.61 200.17L247.69 200.17L247.69 217.06L247.68 217.76L247.63 218.44L247.55 219.13L247.43 219.8L247.29 220.46L247.11 221.12L246.91 221.76L246.68 222.4L246.41 223.02L246.12 223.63L245.81 224.23L245.46 224.82L245.09 225.39L244.7 225.95L244.28 226.5L243.84 227.03L243.37 227.55L242.88 228.05L242.37 228.53L241.84 229L241.29 229.45L240.71 229.88L240.12 230.29L239.51 230.69L238.88 231.06L238.23 231.42L237.57 231.75L236.89 232.06L236.2 232.35L235.49 232.62L234.76 232.86L234.02 233.08L233.27 233.28L232.51 233.45L231.73 233.6L230.95 233.72L230.15 233.82L229.34 233.89L228.53 233.93L227.71 233.95L226.88 233.93L226.07 233.89L225.26 233.82L224.46 233.72L223.68 233.6L222.9 233.45L222.14 233.28L221.39 233.08L220.65 232.86L219.92 232.62L219.21 232.35L218.52 232.06L217.84 231.75L217.18 231.42L216.53 231.06L215.9 230.69L215.29 230.29L214.7 229.88L214.12 229.45L213.57 229L213.04 228.53L212.53 228.05L212.04 227.55L211.57 227.03L211.13 226.5L210.71 225.95L210.32 225.39L209.95 224.82L209.6 224.23L209.29 223.63L209 223.02L208.73 222.4L208.5 221.76L208.3 221.12L208.12 220.46L207.98 219.8L207.86 219.13L207.78 218.44L207.73 217.76L207.72 217.06L207.72 200.17L157.74 200.17L157.74 250.83Z" id="b3ckK0FAk"></path><path d="M305.16 382.96C281.18 362.09 267.85 350.5 265.19 348.18C257.48 341.49 244.82 341.34 236.9 347.84C228.98 354.35 228.8 365.04 236.5 371.74C241.89 376.4 284.98 413.76 290.37 418.43C297.98 425 310.42 425.23 318.36 418.93C328.96 410.49 413.8 342.94 424.4 334.5C432.43 328.09 432.79 317.39 425.2 310.61C417.61 303.82 404.95 303.52 396.91 309.93C396.91 309.93 396.91 309.93 396.91 309.93C384.68 319.67 354.1 344.01 305.16 382.96Z" id="aTKXbC364"></path><path d="M623.37 313.38C623.37 469.34 487.69 595.97 320.56 595.97C153.44 595.97 17.75 469.34 17.75 313.38C17.75 157.42 153.44 30.8 320.56 30.8C487.69 30.8 623.37 157.42 623.37 313.38Z" id="bE9OxMJQq"></path></defs><g><g><g><use xlink:href="#b3ckK0FAk" opacity="1" fill="#ffffff" fill-opacity="1"></use><g><use xlink:href="#b3ckK0FAk" opacity="1" fill-opacity="0" stroke="#000000" stroke-width="1" stroke-opacity="0"></use></g></g><g><use xlink:href="#aTKXbC364" opacity="1" fill="#ffffff" fill-opacity="1"></use><g><use xlink:href="#aTKXbC364" opacity="1" fill-opacity="0" stroke="#000000" stroke-width="1" stroke-opacity="0"></use></g></g><g><use xlink:href="#bE9OxMJQq" opacity="1" fill="#070202" fill-opacity="0"></use><g><use xlink:href="#bE9OxMJQq" opacity="1" fill-opacity="0" stroke="#ffffff" stroke-width="9" stroke-opacity="1"></use></g></g></g></g></svg>