<?xml version="1.0" ?><svg baseProfile="tiny" id="Layer_1" version="1.2" viewBox="0 0 512 512" xml:space="preserve" xmlns="http://www.w3.org/2000/svg" xmlns:xlink="http://www.w3.org/1999/xlink"><g id="XMLID_1081_"><circle cx="256" cy="256" fill="#967BAD" id="XMLID_897_" r="256"/><path d="M512,256c0-3.3-0.1-6.5-0.2-9.8L366,98.6c0-1.4-1.3-2.6-2.9-2.6h-34.5   c-1.6,0-2.9,1.2-2.9,2.6v5.8l9.1,6.2h-9.1v15.7l-8.4-8.3H152.5c-12.5,0-22.6,10.1-22.6,22.6v155.2l9.1,5.6h-13.8V375l9.1,5.6h-4.5   v12.8c0,7.4,3.6,14,9.1,18.1c0.9,1.2,62.2,62.6,99.6,99.9c5.8,0.4,11.6,0.6,17.4,0.6C397.4,512,512,397.4,512,256z" fill="#826B9B" id="XMLID_945_"/><g id="XMLID_29_"><path d="M257.1,338.2l42-36.8H125.2V375h173.9L257.1,338.2z M160.6,355.3l-7.4-12.9l-7.4,12.9H139    l10.8-17.2l-10.5-17h6.7l7.1,12.6l7.2-12.6h6.8l-10.5,17l10.9,17.2H160.6z M195.1,355.3h-21.7v-34.2h5.7v29.7h16V355.3z     M221.8,353.3c-2.2,1.7-5.1,2.5-8.8,2.5c-3.5,0-6.5-0.9-9.1-2.8c-2.6-1.8-3.8-4.5-3.8-7.8l0-0.1h5.5c0,2.1,0.7,3.6,2.1,4.6    c1.4,1,3.1,1.6,5.2,1.6c2,0,3.6-0.4,4.7-1.3c1.1-0.9,1.7-2,1.7-3.5c0-1.4-0.5-2.6-1.5-3.5c-1-0.9-2.8-1.7-5.4-2.4    c-3.7-1-6.5-2.4-8.5-4c-2-1.7-3-3.8-3-6.5c0-2.8,1.1-5,3.3-6.8c2.2-1.8,5-2.7,8.5-2.7c3.7,0,6.7,1,8.9,3c2.2,2,3.3,4.4,3.2,7.3    l0,0.1h-5.5c0-1.8-0.6-3.2-1.8-4.3s-2.8-1.6-4.8-1.6c-1.9,0-3.4,0.5-4.5,1.4c-1,0.9-1.6,2.1-1.6,3.5c0,1.3,0.6,2.4,1.7,3.3    c1.1,0.9,3,1.7,5.7,2.4c3.6,1,6.3,2.4,8.2,4.1c1.9,1.7,2.8,3.9,2.8,6.6C225.1,349.3,224,351.6,221.8,353.3z M244.2,342.5    l-7.4,12.9H230l10.8-17.2l-10.5-17h6.7l7.1,12.6l7.2-12.6h6.8l-10.5,17l10.9,17.2h-6.9L244.2,342.5z" fill="#FFFFFF" id="XMLID_30_"/><path d="M383.9,167.1H366v-34.6h-40.4v34.6h-17.8c-2.5,0-3.9,2.7-2.2,4.4l38,44.1    c1.2,1.1,3.2,1.1,4.3,0l38-44.1C387.7,169.8,386.4,167.1,383.9,167.1z" fill="#FFFFFF" id="XMLID_562_"/><rect fill="#FFFFFF" height="15.7" id="XMLID_561_" width="40.4" x="325.7" y="110.6"/><path d="M341.4,224v166c0,9.6-7.8,17.5-17.5,17.5H155.9c-9.6,0-17.5-7.8-17.5-17.5v-9.4h-8.6v12.8    c0,12.5,10.1,22.6,22.6,22.6h174.9c12.5,0,22.6-10.1,22.6-22.6V224.1c-1.3,0.5-2.7,0.8-4.1,0.8C344.3,224.8,342.8,224.5,341.4,224    z" fill="#FFFFFF" id="XMLID_560_"/><path d="M138.4,144.1c0-9.6,7.8-17.5,17.5-17.5h161.4v-2.5v-6.1H152.5    c-12.5,0-22.6,10.1-22.6,22.6v155.2h8.6V144.1z" fill="#FFFFFF" id="XMLID_559_"/><path d="M299,176.6H164v12.4h145.7l-10.3-11.9C299.3,177,299.1,176.8,299,176.6z" fill="#FFFFFF" id="XMLID_558_"/><rect fill="#FFFFFF" height="12.4" id="XMLID_557_" width="151.8" x="164" y="196.8"/><rect fill="#FFFFFF" height="12.4" id="XMLID_556_" width="151.8" x="164" y="217"/><rect fill="#FFFFFF" height="12.4" id="XMLID_555_" width="151.8" x="164" y="237.2"/><rect fill="#FFFFFF" height="12.4" id="XMLID_554_" width="118.9" x="164" y="257.3"/><path d="M366,98.6c0-1.4-1.3-2.6-2.9-2.6h-34.5c-1.6,0-2.9,1.2-2.9,2.6v5.8H366V98.6z" fill="#FFFFFF" id="XMLID_553_"/></g></g></svg>